HIERARCHY
ROOT RootJoint
{
    OFFSET   0.000000   0.000000   0.000000
    CHANNELS 6 Xposition Yposition Zposition Xrotation Yrotation Zrotation
    JOINT pelvis_lowerback
    {
        OFFSET   0.000000   0.093605   0.000000
        CHANNELS 3 Xrotation Yrotation Zrotation
        JOINT lowerback_torso
        {
            OFFSET   0.000000   0.100000   0.000000
            CHANNELS 3 Xrotation Yrotation Zrotation
            JOINT torso_head
            {
                OFFSET   0.000000   0.282350   0.000000
                CHANNELS 3 Xrotation Yrotation Zrotation
                End Site
                {
                    OFFSET   0.000000   0.192650   0.000000
                }
            }
            JOINT rTorso_Clavicle
            {
                OFFSET  -0.001000   0.157500   0.000000
                CHANNELS 3 Xrotation Yrotation Zrotation
                JOINT rShoulder
                {
                    OFFSET  -0.117647   0.000000   0.000000
                    CHANNELS 3 Xrotation Yrotation Zrotation
                    JOINT rElbow
                    {
                        OFFSET  -0.245000   0.000000   0.000000
                        CHANNELS 3 Xrotation Yrotation Zrotation
                        JOINT rWrist
                        {
                            OFFSET  -0.240000   0.000000   0.000000
                            CHANNELS 3 Xrotation Yrotation Zrotation
                            End Site
                            {
                                OFFSET  -0.116353  -0.002500   0.000000
                            }
                        }
                    }
                }
            }
            JOINT lTorso_Clavicle
            {
                OFFSET   0.001000   0.157500   0.000000
                CHANNELS 3 Xrotation Yrotation Zrotation
                JOINT lShoulder
                {
                    OFFSET   0.117647   0.000000   0.000000
                    CHANNELS 3 Xrotation Yrotation Zrotation
                    JOINT lElbow
                    {
                        OFFSET   0.245000   0.000000   0.000000
                        CHANNELS 3 Xrotation Yrotation Zrotation
                        JOINT lWrist
                        {
                            OFFSET   0.240000   0.000000   0.000000
                            CHANNELS 3 Xrotation Yrotation Zrotation
                            End Site
                            {
                                OFFSET   0.116353  -0.002500   0.000000
                            }
                        }
                    }
                }
            }
        }
    }
    JOINT rHip
    {
        OFFSET  -0.100000  -0.051395   0.000000
        CHANNELS 3 Xrotation Yrotation Zrotation
        JOINT rKnee
        {
            OFFSET   0.000000  -0.410000   0.000000
            CHANNELS 3 Xrotation Yrotation Zrotation
            JOINT rAnkle
            {
                OFFSET   0.000000  -0.390000   0.000000
                CHANNELS 3 Xrotation Yrotation Zrotation
                JOINT rToeJoint
                {
                    OFFSET   0.000000  -0.050000   0.130000
                    CHANNELS 3 Xrotation Yrotation Zrotation
                    End Site
                    {
                        OFFSET  -0.010000   0.002000   0.060000
                    }
                }
            }
        }
    }
    JOINT lHip
    {
        OFFSET   0.100000  -0.051395   0.000000
        CHANNELS 3 Xrotation Yrotation Zrotation
        JOINT lKnee
        {
            OFFSET   0.000000  -0.410000   0.000000
            CHANNELS 3 Xrotation Yrotation Zrotation
            JOINT lAnkle
            {
                OFFSET   0.000000  -0.390000   0.000000
                CHANNELS 3 Xrotation Yrotation Zrotation
                JOINT lToeJoint
                {
                    OFFSET   0.000000  -0.050000   0.130000
                    CHANNELS 3 Xrotation Yrotation Zrotation
                    End Site
                    {
                        OFFSET   0.010000   0.002000   0.060000
                    }
                }
            }
        }
    }
}
MOTION
Frames: 11
Frame Time:   0.008333
 -2.318221   0.896536   4.709910   1.656252   8.466468  -2.626450  -0.450786  -3.551869  -1.343746   0.069701  -2.195625   3.332006  -1.014260  -0.182843   3.484433   3.621170  -3.566407  10.847582   9.661066  12.040062  46.585354   0.000026  18.835047   0.000264   6.836912   2.863156   1.962501   3.341574  -1.345637 -11.033402   7.465156 -17.794318 -49.209832  -0.000096 -10.943952   0.000235   7.931324  -3.832678  -1.581414 -23.754882   0.139892  -6.223717   6.792160   0.001706  -0.001722  -0.057845  -8.645597   3.707830  -1.550459  -0.000208   0.000298   9.212962  -0.636686   3.280975  13.258380   0.000383  -0.000355 -17.469249   0.959723  -0.826415 -10.426554   0.000381  -0.002606
 -2.320272   0.896352   4.715750   1.708966   8.639114  -2.624152  -0.515066  -3.593630  -1.348711   0.085870  -2.176033   3.282129  -1.050166  -0.192692   3.447511   3.598378  -3.522505  10.803722   9.659173  12.041221  46.608972   0.000027  18.818628   0.000234   6.890225   2.835922   1.991431   3.363508  -1.310407 -11.059794   7.567338 -17.639660 -49.216150  -0.000095 -10.920086   0.000233   7.975916  -3.794184  -1.600006 -23.435392   0.072532  -5.994663   6.890657   0.001112  -0.001239   0.131173  -8.679544   3.500099  -1.469999  -0.000158   0.000299   9.572236  -0.767499   3.514414  13.093070   0.000596  -0.000379 -17.120919   0.917594  -1.045751 -11.271388   0.000311  -0.001874
 -2.322451   0.896278   4.721737   1.774126   8.810120  -2.632674  -0.591907  -3.639618  -1.352080   0.092737  -2.159001   3.232377  -1.087023  -0.202963   3.409563   3.577179  -3.480974  10.763813   9.656111  12.045014  46.638308   0.000027  18.805457   0.000205   6.941535   2.817880   2.036528   3.392441  -1.271287 -11.080607   7.668843 -17.490521 -49.226112  -0.000096 -10.895092   0.000233   8.018366  -3.743894  -1.630521 -23.117353   0.004943  -5.730867   7.021607   0.000527  -0.000800   0.310428  -8.712045   3.306727  -1.388374  -0.000140   0.000306   9.914388  -0.907258   3.770714  12.937410   0.000770  -0.000378 -16.692149   0.866684  -1.274474 -12.257161   0.000234  -0.001100
 -2.324712   0.896216   4.727812   1.855692   8.976014  -2.643354  -0.674679  -3.682185  -1.355911   0.089186  -2.142393   3.182138  -1.123923  -0.212912   3.372778   3.555885  -3.441484  10.721561   9.651946  12.049779  46.665509   0.000027  18.794716   0.000177   6.990077   2.809959   2.083935   3.421307  -1.233022 -11.096595   7.764713 -17.350568 -49.236979  -0.000095 -10.871489   0.000229   8.059073  -3.693041  -1.667403 -22.808877  -0.058608  -5.453977   7.156469   0.000037  -0.000441   0.478338  -8.742427   3.126723  -1.312377  -0.000139   0.000311  10.232140  -1.045812   4.034192  12.798816   0.000887  -0.000364 -16.227129   0.813012  -1.508376 -13.320781   0.000156  -0.000425
 -2.327027   0.896087   4.733949   1.956246   9.130806  -2.653731  -0.762052  -3.718881  -1.359154   0.076747  -2.124517   3.131681  -1.159985  -0.222187   3.337755   3.533283  -3.403048  10.673714   9.646397  12.055251  46.687267   0.000026  18.786079   0.000153   7.036264   2.810009   2.125934   3.448143  -1.196626 -11.107908   7.853911 -17.220149 -49.247685  -0.000092 -10.849947   0.000220   8.097901  -3.646863  -1.705613 -22.518184  -0.117034  -5.173912   7.287367  -0.000346  -0.000165   0.635137  -8.770811   2.959021  -1.243052  -0.000146   0.000309  10.537470  -1.180754   4.301637  12.693739   0.000923  -0.000331 -15.736360   0.758002  -1.747878 -14.492002   0.000074   0.000200
 -2.329376   0.895864   4.740130   2.074368   9.277327  -2.657626  -0.849953  -3.751738  -1.365118   0.057675  -2.106473   3.080231  -1.194873  -0.230852   3.304701   3.508899  -3.365099  10.622099   9.639276  12.061362  46.703114   0.000024  18.779082   0.000131   7.080321   2.815253   2.157958   3.471604  -1.163368 -11.116278   7.936021 -17.099195 -49.257117  -0.000087 -10.830472   0.000207   8.134948  -3.605909  -1.741068 -22.245590  -0.170642  -4.903013   7.411427  -0.000628   0.000038   0.781447  -8.797449   2.802660  -1.179782  -0.000153   0.000302  10.824973  -1.309813   4.561725  12.593285   0.000944  -0.000302 -15.253391   0.701467  -1.986115 -15.663639   0.000009   0.000688
 -2.331755   0.895532   4.746353   2.208034   9.416116  -2.654040  -0.936691  -3.781334  -1.374114   0.034454  -2.088670   3.028220  -1.228105  -0.238924   3.273602   3.483326  -3.327879  10.568432   9.630948  12.067921  46.714105   0.000022  18.773404   0.000112   7.122426   2.824138   2.180392   3.491753  -1.133254 -11.122498   8.011407 -16.987160 -49.265245  -0.000080 -10.812933   0.000191   8.170329  -3.570015  -1.772815 -21.989666  -0.219759  -4.644418   7.527984  -0.000826   0.000183   0.917917  -8.822492   2.656806  -1.122079  -0.000159   0.000289  11.095416  -1.430424   4.811813  12.501266   0.000944  -0.000276 -14.789261   0.643724  -2.206019 -16.822801   0.000122   0.001073
 -2.334277   0.895305   4.752859   2.304893   9.527073  -2.641775  -1.024681  -3.832230  -1.403414   0.024689  -2.052716   2.978831  -1.266597  -0.253275   3.205006   3.466394  -3.266558  10.542681   9.657890  12.063479  46.719976   0.000008  18.800828   0.000054   7.169891   2.806275   2.204856   3.484002  -1.076689 -11.105831   8.106306 -16.815066 -49.307938  -0.000065 -10.811684   0.000155   8.193924  -3.524057  -1.806559 -21.658124  -0.282299  -4.317709   7.663626  -0.001112   0.000288   1.170880  -8.770384   2.400925  -1.073737  -0.000127   0.000290  11.371120  -1.547295   5.069119  12.498667   0.000761  -0.000221 -14.209848   0.583944  -2.460711 -18.249858  -0.000069   0.001605
 -2.336869   0.895064   4.759537   2.406928   9.616459  -2.619417  -1.128278  -3.880113  -1.440587   0.006437  -2.015748   2.923456  -1.305689  -0.267609   3.134809   3.455281  -3.212933  10.518876   9.686039  12.057918  46.729615  -0.000004  18.826624   0.000017   7.215989   2.792809   2.242420   3.488105  -1.012515 -11.083576   8.203813 -16.646979 -49.349599  -0.000054 -10.807434   0.000132   8.214859  -3.469703  -1.848238 -21.311056  -0.343625  -3.956588   7.811984  -0.001433   0.000363   1.409660  -8.721738   2.162622  -1.017925  -0.000126   0.000292  11.627891  -1.657664   5.316850  12.538448   0.000518  -0.000172 -13.581199   0.524234  -2.713222 -19.798844  -0.000195   0.002143
 -2.339499   0.894743   4.766330   2.522256   9.695103  -2.585321  -1.242100  -3.925937  -1.482767  -0.022173  -1.981445   2.864052  -1.345306  -0.281337   3.067268   3.446767  -3.165645  10.491676   9.713871  12.051168  46.737474  -0.000013  18.850649  -0.000008   7.259835   2.781369   2.280779   3.496399  -0.948199 -11.059235   8.298493 -16.487262 -49.388850  -0.000046 -10.802052   0.000115   8.235016  -3.410661  -1.893835 -20.962938  -0.401927  -3.581053   7.962608  -0.001730   0.000414   1.633237  -8.676815   1.940443  -0.965592  -0.000143   0.000286  11.865788  -1.760312   5.549378  12.598618   0.000278  -0.000130 -12.942907   0.462411  -2.939245 -21.388512   0.000028   0.002636
 -2.342154   0.894302   4.773204   2.653399   9.767664  -2.538463  -1.361659  -3.970188  -1.528475  -0.059472  -1.950688   2.801940  -1.384700  -0.294331   3.003237   3.438989  -3.122861  10.459954   9.740439  12.043767  46.741562  -0.000020  18.873128  -0.000024   7.301641   2.770954   2.313382   3.504674  -0.887115 -11.034120   8.387437 -16.337765 -49.425415  -0.000039 -10.796912   0.000100   8.254344  -3.352841  -1.939140 -20.621502  -0.456072  -3.202769   8.110841  -0.001977   0.000447   1.842354  -8.635300   1.733215  -0.917139  -0.000166   0.000276  12.086670  -1.856799   5.765238  12.668103   0.000065  -0.000094 -12.315022   0.398204  -3.143095 -22.977095   0.000468   0.003052
